inDegrees=no
num_controls=7
num_derivatives=13
num_iterations=132
num_multipliers=7
num_parameters=0
num_slacks=7
num_states=26
objective=0.448539
objective_accelerations=0.049521
objective_balance=0.007664
objective_effort=0.036960
objective_height=0.349455
objective_ligament=0.004939
solver_duration=1894.192852
status=Solve_Succeeded
success=true
DataType=double
version=3
OpenSimVersion=4.5
endheader
time	/jointset/ground_pelvis/pelvis_tilt/value	/jointset/ground_pelvis/pelvis_tx/value	/jointset/ground_pelvis/pelvis_ty/value	/jointset/hip_l/hip_flexion_l/value	/jointset/hip_l/hip_adduction_l/value	/jointset/hip_l/hip_rotation_l/value	/jointset/back/lumbar_extension/value	/jointset/patellofemoral_l/patellar_flexion_l/value	/jointset/knee_l/knee_flexion_l/value	/jointset/knee_l/knee_adduction_l/value	/jointset/knee_l/knee_rotation_l/value	/jointset/ankle_l/ankle_angle_l/value	/jointset/subtalar_l/subtalar_angle_l/value	/jointset/ground_pelvis/pelvis_tilt/speed	/jointset/ground_pelvis/pelvis_tx/speed	/jointset/ground_pelvis/pelvis_ty/speed	/jointset/hip_l/hip_flexion_l/speed	/jointset/hip_l/hip_adduction_l/speed	/jointset/hip_l/hip_rotation_l/speed	/jointset/back/lumbar_extension/speed	/jointset/patellofemoral_l/patellar_flexion_l/speed	/jointset/knee_l/knee_flexion_l/speed	/jointset/knee_l/knee_adduction_l/speed	/jointset/knee_l/knee_rotation_l/speed	/jointset/ankle_l/ankle_angle_l/speed	/jointset/subtalar_l/subtalar_angle_l/speed	/forceset/tau_hip_flexion_l	/forceset/tau_hip_adduction_l	/forceset/tau_hip_rotation_l	/forceset/tau_knee_flexion_l	/forceset/tau_ankle_angle_l	/forceset/tau_subtalar_angle_l	/forceset/tau_lumbar_extension	lambda_cid13_p0	lambda_cid13_p1	lambda_cid13_p2	lambda_cid13_p3	lambda_cid13_p4	lambda_cid13_p5	lambda_cid14_p0	/jointset/ground_pelvis/pelvis_tilt/accel	/jointset/ground_pelvis/pelvis_tx/accel	/jointset/ground_pelvis/pelvis_ty/accel	/jointset/hip_l/hip_flexion_l/accel	/jointset/hip_l/hip_adduction_l/accel	/jointset/hip_l/hip_rotation_l/accel	/jointset/back/lumbar_extension/accel	/jointset/patellofemoral_l/patellar_flexion_l/accel	/jointset/knee_l/knee_flexion_l/accel	/jointset/knee_l/knee_adduction_l/accel	/jointset/knee_l/knee_rotation_l/accel	/jointset/ankle_l/ankle_angle_l/accel	/jointset/subtalar_l/subtalar_angle_l/accel	gamma_cid13_p0	gamma_cid13_p1	gamma_cid13_p2	gamma_cid13_p3	gamma_cid13_p4	gamma_cid13_p5	gamma_cid14_p0
1.5	-0.4557376617056007	-0.07837565084960399	0.7610658381060816	1.27869940720381	-0.3099961883215777	-0.04795684553648191	-0.3441788809058134	0.6856794911950971	0.6856794911950725	-0.173150753351038	0.1743700100547764	0.02800537777136748	-0.05108976675086228	0.7525452701663108	0.2731485767105036	0.4952094151978819	-2.371453873002841	0.03540088586254152	-0.6058459790785121	0.5648838091781828	-1.741770843137762	-1.741770843137715	0.006994609712151432	-0.001663867569964589	-0.2138958024784884	0.01360934939027321	-0.2528623124735203	0.01812011974204322	-0.02101099160230808	-0.1997195925450895	0.1456649053407382	0.04232254296651614	0.2264799060789735	7.821002466754233	-22.40644475259015	6.203987151569605	-5.804156440525817	-609.5732644187965	-58.61354830418576	-28.49382327804485	0.6450840627441682	0.6872028017350805	-0.3027744915076453	-1.525083880683282	0.5739870837726281	-0.2728326512207696	1.709822787028486	-1.069660298949086	-1.06966029894902	0.01505780769836458	-0.02697682002103332	-0.1293368641794245	0.5507476725353665	2.465082601913917e-07	7.390847879253388e-07	-1.236296525837762e-06	-5.890616990588876e-08	3.341644282027696e-07	-7.446533749501792e-08	2.8336891934447e-07
1.51	-0.4481803070141375	-0.07561002392634297	0.7660018497067654	1.254910829737294	-0.3096144710695133	-0.05402877338190808	-0.338445901372373	0.6682106141941428	0.6682106141941042	-0.1730818235386082	0.1743534313560962	0.02586012257462931	-0.05092719322126322	0.7588238635282246	0.2799460322001893	0.4918949475997369	-2.385939670711926	0.04094495576521438	-0.6084373496297582	0.5816441804732125	-1.75176136735791	-1.751761367357933	0.006764550109324676	-0.001667310233277516	-0.215108320629838	0.01890890621068639	-0.2448591516189972	0.01744386487198846	-0.02086766183900552	-0.1982504063761626	0.1452673691235655	0.0417339518780667	0.220292761972349	7.934260579309747	-22.27733845689646	6.305267542838721	-5.708812299946395	-605.1135603994007	-58.93125969899577	-29.48925288707188	0.6039931625877827	0.6714245716261537	-0.360430526861048	-1.362014567136815	0.5448865545524233	-0.2367514671783923	1.648956745234575	-0.9273092909352554	-0.9273092909459071	-0.04588116221921713	0.01079441972754512	-0.1101602953301303	0.5199665426832725	1.311097834723433e-07	9.807609149170285e-07	-6.939734015002534e-07	5.920568406377638e-08	2.653102230983944e-07	4.20220090178714e-09	2.259090211987424e-07
1.52	-0.4405632171511213	-0.07277734091837693	0.7709017871048893	1.230987056923461	-0.3091772591962141	-0.06012350737486972	-0.3325473556370843	0.6506491197895075	0.6506491197894601	-0.173015962985791	0.1743363827126282	0.02370415199543404	-0.05071154275228227	0.7644923044770515	0.2865597936515104	0.4879945746858645	-2.39849294246564	0.04649981010940191	-0.61040720858508	0.5979970495480167	-1.760294323873563	-1.760294323873658	0.006380757788657064	-0.001757856528032519	-0.216038878969884	0.02422473726665936	-0.2368559907644923	0.01676761000192646	-0.02072433207566133	-0.1967812202072435	0.1448698329063914	0.04114536078960969	0.2141056178657076	8.039611040448634	-22.1491326296794	6.409301657321465	-5.598255343129849	-600.7791030231565	-59.30402990519362	-30.46630012563197	0.5230535801267762	0.6504639940621615	-0.4199555546530931	-1.138578689609156	0.5761439720755607	-0.1485303320359195	1.628322342983373	-0.7781467580502949	-0.7781467580502923	-0.01568873586980274	-0.04439754630944628	-0.07294490191868272	0.5540025196473324	6.660125571700304e-08	1.13850916151742e-06	-3.99766439774658e-07	1.264403078164789e-07	2.325955477440712e-07	5.646465335027843e-08	1.965821064774076e-07
1.53	-0.4328925246348425	-0.06987948407822482	0.775759847813981	1.206947431486771	-0.3086844561495834	-0.06623537800602673	-0.3264874680980153	0.6330096974555648	0.6330096974555254	-0.1729543745981511	0.1743183972017178	0.02154034966628075	-0.05044264507701384	0.7695364014799605	0.292975423568099	0.4835246179717336	-2.409098200180571	0.05206423891303801	-0.6118940988473969	0.6139016762293781	-1.767334503066613	-1.767334503066688	0.005938574408218073	-0.001832842815278199	-0.2166676716094002	0.0295610255671841	-0.2287289472923211	0.01588436355095095	-0.02063356203027813	-0.1954630649816875	0.1447575033025621	0.04041148849334328	0.207794077348447	8.229952194451707	-21.9748789701206	6.508469108696549	-5.543908252555272	-596.4957056652423	-59.61927392139096	-31.42070746180004	0.4786326904973719	0.6317192033782182	-0.4744098395274606	-0.9713892898731432	0.5469905584349891	-0.1376394234072284	1.559715525247783	-0.6286470123998851	-0.6286470123969706	-0.05803287748881811	0.01204425753589436	-0.04974672308772825	0.524221782814875	5.616329873560212e-08	1.207084035202057e-06	-3.691829008242171e-07	1.396178744636592e-07	2.382791227491778e-07	8.067170197868665e-08	1.9714648664449e-07
1.54	-0.4251746821625098	-0.06691854959632265	0.7805704301339846	1.182811775477443	-0.30813592917013	-0.07235989174982507	-0.3202708977532264	0.6153075346271973	0.6153075346271691	-0.1728971179919865	0.174299880513427	0.01937187935510831	-0.05012022855922822	0.7739222956878463	0.2991753220015269	0.4784988968682283	-2.417699056993027	0.05764459667377038	-0.6129358311128201	0.6293336106921509	-1.772842422758366	-1.772842422758422	0.005514401493464448	-0.001864092003803193	-0.2169724753737018	0.03492850577010265	-0.2206019038201652	0.01500111709996855	-0.02054279198488806	-0.1941449097561344	0.1446451736987314	0.03967761619706964	0.2014825368311728	8.411829033391641	-21.80120826324235	6.610088301249456	-5.469092897590215	-592.3432015330553	-59.98999958731484	-32.34826160197535	0.3914130211221292	0.6073176974300691	-0.5311084325279699	-0.7376985091142395	0.5793297634948176	-0.05949873265718389	1.533783899265701	-0.4716948577909402	-0.4716948577909408	-0.01208664273272635	-0.03565012656530759	-0.008147126875728782	0.5602409001261043	4.588999759069172e-08	1.270218019122056e-06	-3.451401381432356e-07	1.51134070929685e-07	2.439196517609685e-07	1.043189560163538e-07	1.975932788836622e-07
1.55	-0.4174162725743324	-0.06389677107129001	0.7853280252233589	1.158600171469064	-0.3075316087167825	-0.07849264279096924	-0.3139025509582902	0.5975580268945516	0.5975580268945482	-0.172844105504939	0.174281330685822	0.01720197690683041	-0.04974406652976882	0.7776457857106225	0.3051358473468264	0.4729315465397286	-2.424275068532226	0.06321441440309049	-0.6135275723551139	0.6442417847266811	-1.776794445556616	-1.776794445556703	0.005079364439774226	-0.001847516310463426	-0.2169540488147164	0.04030177839186392	-0.2124511250979751	0.01396967308222362	-0.02048103378127687	-0.1927907745175186	0.1445043673208775	0.03882560123444092	0.1951034353585293	8.578102678199171	-21.57457539799043	6.704496503969555	-5.348677620510472	-588.228968216104	-60.27956140664123	-33.24464653368968	0.3457532041092826	0.5837728184999446	-0.5827839797048413	-0.5655356169085628	0.5449060071133122	-0.04578115193882488	1.455239620275638	-0.3172938742591096	-0.3172938742636867	-0.06030071827038872	0.02019736729558348	0.01494423216012772	0.5253761876433415	3.580640860521606e-08	1.327083151791494e-06	-3.286334872509786e-07	1.607360800130766e-07	2.495105843021994e-07	1.273212293299061e-07	1.979045893798076e-07
1.56	-0.4096240408436762	-0.06081671671972038	0.7900272996801094	1.134333210717175	-0.3068717704402483	-0.08462866511092321	-0.3073879413300633	0.5797769313572414	0.5797769313572607	-0.1727956610847499	0.1742629238051455	0.01503388006111733	-0.0493142706252034	0.7806867241835543	0.3108304873089229	0.4668347703434785	-2.428770405694858	0.06874816131092035	-0.6135900868743407	0.6585861773503695	-1.779159983691547	-1.779159983691664	0.004600788122755797	-0.001835502616644603	-0.2166113548607524	0.04565528079131392	-0.2043003463757953	0.01293822906447349	-0.02041927557770693	-0.1914366392788981	0.144363560943023	0.03797358627180696	0.1887243338858769	8.73527599363138	-21.34820708119428	6.801069200989817	-5.203214684255174	-584.2527290966734	-60.6244918430931	-34.10564541791075	0.2549027111532579	0.5541406207894761	-0.6369936060780319	-0.3215636338009604	0.5721155991967766	0.04634661195623932	1.421027617097296	-0.154397925127073	-0.1543979251270733	-0.02079449539836558	-0.03656252646949532	0.05670635212001226	0.5562868556638589	2.555072188920833e-08	1.381748886597027e-06	-3.118324153496576e-07	1.694329723009743e-07	2.552324358049402e-07	1.499676593218967e-07	1.977750417278208e-07
